<?xml version="1.0" encoding="UTF-8"?>
<!DOCTYPE svg PUBLIC "-//W3C//DTD SVG 1.1//EN" "http://www.w3.org/Graphics/SVG/1.1/DTD/svg11.dtd">
<svg xmlns="http://www.w3.org/2000/svg" version="1.1" width="512px" height="512px" style="shape-rendering:geometricPrecision; text-rendering:geometricPrecision; image-rendering:optimizeQuality; fill-rule:evenodd; clip-rule:evenodd" xmlns:xlink="http://www.w3.org/1999/xlink">
<g><path style="opacity:0.997" fill="#f0c30f" d="M 468.5,436.5 C 462.991,452.175 452.324,462.675 436.5,468C 315.833,468.667 195.167,468.667 74.5,468C 58.6756,462.675 48.0089,452.175 42.5,436.5C 40.66,427.254 41.4933,418.254 45,409.5C 101.938,295.957 158.605,182.29 215,68.5C 229.035,42.8218 249.535,35.6551 276.5,47C 285.103,52.2694 291.603,59.4361 296,68.5C 352.395,182.29 409.062,295.957 466,409.5C 469.507,418.254 470.34,427.254 468.5,436.5 Z"/></g>
<g><path style="opacity:1" fill="#34495d" d="M 249.5,170.5 C 262.174,168.916 271.008,173.916 276,185.5C 272.929,237.156 269.763,288.823 266.5,340.5C 259.167,340.5 251.833,340.5 244.5,340.5C 241.688,290.804 238.355,241.138 234.5,191.5C 235.228,181.44 240.228,174.44 249.5,170.5 Z"/></g>
<g><path style="opacity:1" fill="#35495d" d="M 249.5,362.5 C 262.174,360.916 271.008,365.916 276,377.5C 278.161,390.683 272.995,399.517 260.5,404C 247.765,405.88 239.265,400.713 235,388.5C 233.33,376.171 238.163,367.504 249.5,362.5 Z"/></g>
<g><path style="opacity:0.983" fill="#f29c11" d="M 42.5,436.5 C 48.0089,452.175 58.6756,462.675 74.5,468C 195.167,468.667 315.833,468.667 436.5,468C 452.324,462.675 462.991,452.175 468.5,436.5C 471.425,461.815 461.092,479.315 437.5,489C 376.877,490.159 316.21,490.659 255.5,490.5C 194.79,490.659 134.123,490.159 73.5,489C 49.9081,479.315 39.5747,461.815 42.5,436.5 Z"/></g>
</svg>
