<?xml version="1.0" encoding="UTF-8"?>
<!DOCTYPE svg PUBLIC "-//W3C//DTD SVG 1.1//EN" "http://www.w3.org/Graphics/SVG/1.1/DTD/svg11.dtd">
<svg xmlns="http://www.w3.org/2000/svg" version="1.1" width="512px" height="512px" style="shape-rendering:geometricPrecision; text-rendering:geometricPrecision; image-rendering:optimizeQuality; fill-rule:evenodd; clip-rule:evenodd" xmlns:xlink="http://www.w3.org/1999/xlink">
<g><path style="opacity:0.998" fill="#e64c3c" d="M 469.5,266.5 C 462.923,340.509 428.59,397.676 366.5,438C 318.836,465.573 267.836,474.573 213.5,465C 130.795,444.962 76.295,394.462 50,313.5C 46.1774,298.743 43.844,283.743 43,268.5C 42.7216,267.584 42.2216,266.918 41.5,266.5C 40.7869,180.732 76.4535,115.232 148.5,70C 219.833,32 291.167,32 362.5,70C 434.546,115.232 470.213,180.732 469.5,266.5 Z"/></g>
<g><path style="opacity:1" fill="#ebeeef" d="M 350.5,190.5 C 328.84,211.327 307.673,232.66 287,254.5C 289.131,258.817 292.298,262.484 296.5,265.5C 317.465,286.965 338.632,308.299 360,329.5C 360.667,330.167 360.667,330.833 360,331.5C 356.629,334.703 353.462,338.036 350.5,341.5C 344.369,347.13 338.369,352.964 332.5,359C 331.5,359.667 330.5,359.667 329.5,359C 304.986,334.319 280.32,309.819 255.5,285.5C 230.68,309.819 206.014,334.319 181.5,359C 180.5,359.667 179.5,359.667 178.5,359C 172.631,352.964 166.631,347.13 160.5,341.5C 157.538,338.036 154.371,334.703 151,331.5C 150.333,330.833 150.333,330.167 151,329.5C 172.368,308.299 193.535,286.965 214.5,265.5C 218.702,262.484 221.869,258.817 224,254.5C 203.327,232.66 182.16,211.327 160.5,190.5C 157.566,186.227 154.233,182.227 150.5,178.5C 159.861,168.305 169.694,158.638 180,149.5C 205.003,174.003 230.169,198.336 255.5,222.5C 280.624,198.877 305.291,174.71 329.5,150C 330.5,149.333 331.5,149.333 332.5,150C 341.667,159.167 350.833,168.333 360,177.5C 360.667,178.167 360.667,178.833 360,179.5C 356.25,182.744 353.083,186.411 350.5,190.5 Z"/></g>
<g><path style="opacity:1" fill="#c03a2c" d="M 160.5,190.5 C 182.16,211.327 203.327,232.66 224,254.5C 221.869,258.817 218.702,262.484 214.5,265.5C 193.562,244.062 172.395,222.728 151,201.5C 152.412,196.569 155.578,192.903 160.5,190.5 Z"/></g>
<g><path style="opacity:1" fill="#c03a2c" d="M 350.5,190.5 C 355.422,192.903 358.588,196.569 360,201.5C 338.605,222.728 317.438,244.062 296.5,265.5C 292.298,262.484 289.131,258.817 287,254.5C 307.673,232.66 328.84,211.327 350.5,190.5 Z"/></g>
<g><path style="opacity:0.986" fill="#c0392b" d="M 41.5,266.5 C 42.2216,266.918 42.7216,267.584 43,268.5C 43.844,283.743 46.1774,298.743 50,313.5C 76.295,394.462 130.795,444.962 213.5,465C 267.836,474.573 318.836,465.573 366.5,438C 428.59,397.676 462.923,340.509 469.5,266.5C 470.421,350.177 436.087,414.677 366.5,460C 302.136,496.127 235.803,500.127 167.5,472C 98.415,438.694 57.2483,384.194 44,308.5C 42.1089,294.563 41.2756,280.563 41.5,266.5 Z"/></g>
<g><path style="opacity:1" fill="#c03a2c" d="M 350.5,341.5 C 354.146,344.479 357.479,347.812 360.5,351.5C 350.848,361.653 341.014,371.653 331,381.5C 306.291,356.29 281.124,331.623 255.5,307.5C 229.876,331.623 204.709,356.29 180,381.5C 169.986,371.653 160.152,361.653 150.5,351.5C 153.521,347.812 156.854,344.479 160.5,341.5C 166.631,347.13 172.631,352.964 178.5,359C 179.5,359.667 180.5,359.667 181.5,359C 206.014,334.319 230.68,309.819 255.5,285.5C 280.32,309.819 304.986,334.319 329.5,359C 330.5,359.667 331.5,359.667 332.5,359C 338.369,352.964 344.369,347.13 350.5,341.5 Z"/></g>
</svg>
