<?xml version="1.0" encoding="UTF-8"?>
<!DOCTYPE svg PUBLIC "-//W3C//DTD SVG 1.1//EN" "http://www.w3.org/Graphics/SVG/1.1/DTD/svg11.dtd">
<svg xmlns="http://www.w3.org/2000/svg" version="1.1" width="512px" height="512px" style="shape-rendering:geometricPrecision; text-rendering:geometricPrecision; image-rendering:optimizeQuality; fill-rule:evenodd; clip-rule:evenodd" xmlns:xlink="http://www.w3.org/1999/xlink">
<g><path style="opacity:0.999" fill="#3497da" d="M 469.5,265.5 C 463.434,335.486 432.1,390.986 375.5,432C 305.211,475.869 232.544,480.203 157.5,445C 99.3796,413.324 62.5463,365.157 47,300.5C 44.7918,288.735 42.9585,277.068 41.5,265.5C 40.7014,188.603 70.7014,127.103 131.5,81C 199.698,36.2332 271.365,29.8998 346.5,62C 413.965,95.7023 454.132,149.869 467,224.5C 468.862,238.104 469.695,251.771 469.5,265.5 Z"/></g>
<g><path style="opacity:1" fill="#eaeff0" d="M 276.5,170.5 C 262.5,170.5 248.5,170.5 234.5,170.5C 234.5,156.167 234.5,141.833 234.5,127.5C 248.5,127.5 262.5,127.5 276.5,127.5C 276.5,141.833 276.5,156.167 276.5,170.5 Z"/></g>
<g><path style="opacity:1" fill="#2980b9" d="M 234.5,170.5 C 248.5,170.5 262.5,170.5 276.5,170.5C 276.5,177.5 276.5,184.5 276.5,191.5C 262.5,191.5 248.5,191.5 234.5,191.5C 234.5,184.5 234.5,177.5 234.5,170.5 Z"/></g>
<g><path style="opacity:1" fill="#ebeff0" d="M 212.5,213.5 C 233.833,213.5 255.167,213.5 276.5,213.5C 276.5,263.167 276.5,312.833 276.5,362.5C 290.833,362.5 305.167,362.5 319.5,362.5C 319.5,369.5 319.5,376.5 319.5,383.5C 276.833,383.5 234.167,383.5 191.5,383.5C 191.5,376.5 191.5,369.5 191.5,362.5C 205.833,362.5 220.167,362.5 234.5,362.5C 234.5,319.833 234.5,277.167 234.5,234.5C 220.833,233.833 207.167,233.167 193.5,232.5C 199.5,225.833 205.833,219.5 212.5,213.5 Z"/></g>
<g><path style="opacity:1" fill="#aecfe4" d="M 193.5,232.5 C 207.167,233.167 220.833,233.833 234.5,234.5C 234.167,234.5 233.833,234.5 233.5,234.5C 226.5,234.5 219.5,234.5 212.5,234.5C 205.492,234.666 198.492,234.5 191.5,234C 192.044,233.283 192.711,232.783 193.5,232.5 Z"/></g>
<g><path style="opacity:1" fill="#7db9e1" d="M 212.5,213.5 C 233.994,212.503 255.66,212.169 277.5,212.5C 277.5,262.167 277.5,311.833 277.5,361.5C 291.677,361.171 305.677,361.504 319.5,362.5C 305.167,362.5 290.833,362.5 276.5,362.5C 276.5,312.833 276.5,263.167 276.5,213.5C 255.167,213.5 233.833,213.5 212.5,213.5 Z"/></g>
<g><path style="opacity:1" fill="#2980b9" d="M 212.5,234.5 C 219.5,234.5 226.5,234.5 233.5,234.5C 233.5,241.5 233.5,248.5 233.5,255.5C 219.829,255.667 206.163,255.5 192.5,255C 199.369,248.298 206.036,241.465 212.5,234.5 Z"/></g>
<g><path style="opacity:1" fill="#6eb1dc" d="M 233.5,234.5 C 233.833,234.5 234.167,234.5 234.5,234.5C 234.5,277.167 234.5,319.833 234.5,362.5C 220.167,362.5 205.833,362.5 191.5,362.5C 205.323,361.504 219.323,361.171 233.5,361.5C 233.5,326.167 233.5,290.833 233.5,255.5C 233.5,248.5 233.5,241.5 233.5,234.5 Z"/></g>
<g><path style="opacity:0.971" fill="#2980b9" d="M 41.5,265.5 C 42.9585,277.068 44.7918,288.735 47,300.5C 62.5463,365.157 99.3796,413.324 157.5,445C 232.544,480.203 305.211,475.869 375.5,432C 432.1,390.986 463.434,335.486 469.5,265.5C 470.198,350.293 435.198,415.46 364.5,461C 291.833,500.333 219.167,500.333 146.5,461C 75.8017,415.46 40.8017,350.293 41.5,265.5 Z"/></g>
<g><path style="opacity:1" fill="#2980b9" d="M 191.5,383.5 C 234.167,383.5 276.833,383.5 319.5,383.5C 319.5,390.5 319.5,397.5 319.5,404.5C 276.833,404.5 234.167,404.5 191.5,404.5C 191.5,397.5 191.5,390.5 191.5,383.5 Z"/></g>
</svg>
