<svg width="48" height="48" viewBox="0 0 48 48" fill="none" xmlns="http://www.w3.org/2000/svg">
<g clip-path="url(#clip0_1_28)">
<path fill-rule="evenodd" clip-rule="evenodd" d="M18.7704 26.7207C21.1933 30.9062 24.8437 34.2456 29.2274 36.2868C33.6111 38.328 38.5162 38.9723 43.2785 38.1324C40.8489 41.0537 37.7498 43.3447 34.2449 44.8107C30.74 46.2766 26.9331 46.8741 23.1479 46.5522C19.3628 46.2304 15.7115 44.9987 12.5047 42.9621C9.2979 40.9254 6.63055 38.1441 4.72958 34.8546C2.82861 31.5652 1.75029 27.865 1.58636 24.069C1.42242 20.2729 2.17773 16.4933 3.78802 13.0518C5.39831 9.61025 7.81592 6.6086 10.8351 4.30226C13.8544 1.99591 17.3859 0.453115 21.1291 -0.194855C18.0211 3.50706 16.1275 8.07597 15.7055 12.8913C15.2835 17.7067 16.3536 22.5351 18.7704 26.7207Z" fill="#FFCF48"/>
</g>
<defs>
<clipPath id="clip0_1_28">
<rect width="48" height="48" fill="white"/>
</clipPath>
</defs>
</svg>
