<?xml version="1.0" encoding="UTF-8"?>
<!DOCTYPE svg PUBLIC "-//W3C//DTD SVG 1.1//EN" "http://www.w3.org/Graphics/SVG/1.1/DTD/svg11.dtd">
<svg xmlns="http://www.w3.org/2000/svg" version="1.1" width="512px" height="512px" style="shape-rendering:geometricPrecision; text-rendering:geometricPrecision; image-rendering:optimizeQuality; fill-rule:evenodd; clip-rule:evenodd" xmlns:xlink="http://www.w3.org/1999/xlink">
<g><path style="opacity:0.999" fill="#3498da" d="M 469.5,266.5 C 462.905,340.554 428.572,397.72 366.5,438C 308.636,470.762 247.969,477.096 184.5,457C 113.389,429.556 67.8885,379.056 48,305.5C 45.7396,292.369 43.5729,279.369 41.5,266.5C 40.7869,180.732 76.4535,115.232 148.5,70C 219.833,32 291.167,32 362.5,70C 434.546,115.232 470.213,180.732 469.5,266.5 Z"/></g>
<g><path style="opacity:1" fill="#ebeff0" d="M 340.5,219.5 C 336.016,239.151 325.682,254.984 309.5,267C 299.181,271.073 290.348,277.24 283,285.5C 280.344,289.144 278.511,293.144 277.5,297.5C 276.508,304.648 276.175,311.981 276.5,319.5C 262.5,319.5 248.5,319.5 234.5,319.5C 234.334,310.161 234.5,300.827 235,291.5C 240.225,278.214 248.059,266.714 258.5,257C 269.268,249.532 279.768,241.699 290,233.5C 293.238,229.691 295.404,225.358 296.5,220.5C 299.608,195.237 288.941,178.737 264.5,171C 241.376,168.311 224.876,177.477 215,198.5C 213.208,203 212.375,207.667 212.5,212.5C 198.5,212.5 184.5,212.5 170.5,212.5C 172.324,170.352 193.324,142.852 233.5,130C 283.089,122.377 317.922,141.544 338,187.5C 341.439,197.974 342.272,208.64 340.5,219.5 Z"/></g>
<g><path style="opacity:1" fill="#2b81b9" d="M 296.5,220.5 C 292.315,210.465 285.648,202.298 276.5,196C 254.838,185.873 236.338,190.04 221,208.5C 214.953,216.14 212.453,224.807 213.5,234.5C 199.167,234.5 184.833,234.5 170.5,234.5C 170.92,227.474 171.587,220.474 172.5,213.5C 186.01,213.829 199.344,213.496 212.5,212.5C 212.375,207.667 213.208,203 215,198.5C 224.876,177.477 241.376,168.311 264.5,171C 288.941,178.737 299.608,195.237 296.5,220.5 Z"/></g>
<g><path style="opacity:1" fill="#2c81ba" d="M 340.5,219.5 C 343.043,245.248 334.377,266.415 314.5,283C 303.194,288.568 293.027,295.735 284,304.5C 281.746,308.007 279.746,311.673 278,315.5C 277.501,309.509 277.334,303.509 277.5,297.5C 278.511,293.144 280.344,289.144 283,285.5C 290.348,277.24 299.181,271.073 309.5,267C 325.682,254.984 336.016,239.151 340.5,219.5 Z"/></g>
<g><path style="opacity:0.972" fill="#2980b9" d="M 41.5,266.5 C 43.5729,279.369 45.7396,292.369 48,305.5C 67.8885,379.056 113.389,429.556 184.5,457C 247.969,477.096 308.636,470.762 366.5,438C 428.572,397.72 462.905,340.554 469.5,266.5C 470.421,350.177 436.087,414.677 366.5,460C 302.136,496.127 235.803,500.127 167.5,472C 98.415,438.694 57.2483,384.194 44,308.5C 42.1089,294.563 41.2756,280.563 41.5,266.5 Z"/></g>
<g><path style="opacity:1" fill="#2980b9" d="M 234.5,319.5 C 248.5,319.5 262.5,319.5 276.5,319.5C 276.5,326.5 276.5,333.5 276.5,340.5C 262.5,340.5 248.5,340.5 234.5,340.5C 234.5,333.5 234.5,326.5 234.5,319.5 Z"/></g>
<g><path style="opacity:1" fill="#eaeff0" d="M 273.5,373.5 C 265.404,384.083 255.404,386.25 243.5,380C 241.294,377.963 239.294,375.797 237.5,373.5C 231.132,359.437 234.798,348.937 248.5,342C 265.043,338.915 274.376,345.582 276.5,362C 276.613,366.156 275.613,369.989 273.5,373.5 Z"/></g>
<g><path style="opacity:1" fill="#2a80b9" d="M 237.5,373.5 C 239.294,375.797 241.294,377.963 243.5,380C 255.404,386.25 265.404,384.083 273.5,373.5C 278.836,384.006 276.836,393.172 267.5,401C 252.294,408.146 241.461,403.979 235,388.5C 234.333,384.5 234.333,380.5 235,376.5C 235.377,375.058 236.21,374.058 237.5,373.5 Z"/></g>
</svg>
